<?xml version="1.0" encoding="UTF-8"?>
<svg xmlns="http://www.w3.org/2000/svg" viewBox="369 441 2402 624" width="2402" height="624"><rect x="369" y="441" width="2402" height="624" fill="#FFFFFF"/>
<defs><mask id="ml" maskUnits="userSpaceOnUse" x="369" y="441" width="2402" height="624">
<g transform="translate(0.000000,1504.000000) scale(0.100000,-0.100000)"><g fill="#fff" stroke="none"><path d="M5590 10319 c-394 -50 -753 -212 -984 -444 -225 -224 -351 -464 -417
-791 -33 -167 -38 -412 -10 -573 37 -215 108 -395 219 -551 61 -85 185 -213
261 -270 88 -65 85 -79 -33 -157 -294 -195 -528 -537 -595 -869 -103 -504 -1
-991 285 -1360 261 -337 671 -563 1127 -619 166 -20 2267 -23 2267 -2 0 7 -30
23 -67 36 -106 38 -314 145 -416 212 -246 165 -446 374 -572 597 l-40 71 -475
3 c-457 4 -478 5 -555 27 -214 60 -376 195 -479 399 -94 185 -92 462 5 653
109 217 262 342 498 407 l96 27 998 0 c658 0 997 3 997 10 0 6 -46 27 -103 49
-307 116 -568 286 -739 482 -77 87 -164 220 -203 306 l-30 66 -430 5 c-483 5
-504 8 -653 77 -69 33 -99 55 -161 118 -130 133 -185 279 -184 492 0 113 3
134 31 218 63 187 175 312 355 398 135 64 164 67 648 71 l436 4 19 42 c28 63
137 222 214 312 189 223 468 414 753 516 37 13 67 29 67 36 0 10 -209 13
-1032 12 -568 -1 -1062 -5 -1098 -10z"/><path d="M9190 10318 c0 -7 54 -35 119 -61 274 -111 550 -312 722 -525 69 -85
194 -270 204 -302 6 -20 14 -20 401 -20 475 0 541 -7 679 -74 254 -124 385
-334 385 -618 0 -333 -183 -578 -493 -660 -81 -22 -91 -22 -1074 -25 -766 -3
-993 -7 -993 -16 0 -7 53 -32 118 -56 440 -164 780 -432 963 -761 l44 -78 475
-4 c450 -4 479 -5 555 -26 286 -78 480 -273 546 -549 30 -126 24 -323 -14
-438 -38 -115 -90 -199 -182 -290 -91 -91 -191 -148 -330 -187 -77 -21 -100
-22 -572 -26 l-492 -3 -36 -71 c-113 -222 -323 -455 -545 -601 -106 -70 -321
-180 -417 -214 -128 -44 -121 -44 1070 -41 1109 3 1123 4 1232 25 408 82 779
292 1006 570 124 151 228 348 269 506 51 201 54 730 6 972 -61 301 -283 617
-561 796 -106 69 -109 85 -30 148 189 151 348 379 425 609 97 291 91 680 -16
1001 -177 533 -566 859 -1189 998 l-120 27 -1077 3 c-873 3 -1078 1 -1078 -9z"/><path d="M14470 10273 c-160 -16 -289 -72 -385 -167 -77 -78 -105 -143 -112
-267 -11 -184 65 -309 238 -392 41 -20 144 -57 229 -82 141 -43 253 -88 288
-117 26 -22 52 -88 52 -132 0 -121 -77 -185 -220 -186 -58 0 -87 6 -125 24
-64 29 -113 84 -121 136 l-7 40 -170 0 -170 0 6 -61 c12 -136 111 -266 259
-339 71 -35 100 -43 203 -56 268 -35 477 32 597 191 92 121 110 322 42 462
-32 67 -111 139 -200 182 -38 18 -154 63 -258 98 -201 68 -240 86 -280 134
-65 77 -32 204 65 255 44 22 128 29 189 14 67 -16 133 -78 150 -139 l11 -41
166 0 166 0 -6 60 c-15 169 -151 309 -349 359 -76 19 -197 31 -258 24z"/><path d="M15391 10246 c-8 -10 -10 -224 -9 -787 l3 -774 158 -3 157 -3 0 341
0 340 340 0 340 0 0 -340 0 -341 158 3 157 3 3 782 2 782 -147 3 c-82 2 -154
2 -160 0 -10 -3 -13 -77 -13 -323 l0 -319 -340 0 -340 0 0 325 0 325 -149 0
c-113 0 -151 -3 -160 -14z"/><path d="M17025 10251 c-3 -2 -5 -357 -5 -788 l0 -783 155 0 155 0 0 788 0
788 -150 0 c-83 0 -153 -2 -155 -5z"/><path d="M17647 10253 c-4 -3 -7 -359 -7 -790 l0 -783 160 0 160 0 0 500 0
500 23 0 c20 0 75 -77 357 -500 l333 -500 164 0 163 0 0 780 c0 760 0 780 -19
790 -11 5 -83 10 -160 10 l-141 0 0 -505 0 -505 -23 0 c-20 0 -76 80 -358 505
l-334 505 -156 0 c-86 0 -159 -3 -162 -7z"/><path d="M19317 10253 c-4 -3 -7 -359 -7 -790 l0 -783 460 0 460 0 0 130 0
130 -305 0 -305 0 0 210 0 210 265 0 265 0 0 58 c0 31 3 87 7 125 l6 67 -272
0 -271 0 0 195 0 195 303 2 302 3 0 125 0 125 -451 3 c-248 1 -454 -1 -457 -5z"/><path d="M16095 6281 c-197 -33 -342 -104 -472 -233 -83 -81 -136 -165 -181
-285 l-36 -98 -1 -170 c0 -198 10 -250 80 -391 76 -155 226 -295 388 -363 116
-48 220 -64 371 -59 113 4 144 9 226 37 129 43 221 100 310 190 118 119 186
249 216 411 71 393 -124 765 -476 907 -41 17 -100 36 -130 42 -73 16 -233 22
-295 12z m218 -286 c181 -38 309 -169 358 -365 20 -79 17 -241 -5 -314 -70
-234 -225 -356 -453 -356 -150 0 -262 43 -355 135 -144 145 -180 436 -79 651
91 195 310 297 534 249z"/><path d="M23405 6280 c-266 -41 -426 -193 -442 -420 -10 -137 41 -263 139
-343 77 -62 164 -99 438 -181 124 -38 180 -72 208 -126 42 -80 16 -188 -57
-237 -44 -29 -130 -46 -194 -38 -109 15 -167 57 -194 142 l-17 53 -163 0 -163
0 0 -23 c0 -35 28 -133 49 -175 54 -106 202 -206 348 -237 159 -34 370 -12
494 51 79 39 171 133 205 207 27 59 29 70 29 197 0 129 -1 138 -28 188 -37 70
-98 130 -172 171 -33 18 -148 62 -255 97 -107 36 -211 74 -231 84 -54 28 -97
76 -105 116 -25 132 59 218 211 218 109 -1 173 -41 215 -137 l21 -47 170 0
171 0 -7 33 c-25 123 -78 225 -151 285 -50 42 -143 88 -216 106 -75 19 -228
27 -303 16z"/><path d="M20336 6253 c-3 -10 -4 -214 -2 -453 2 -239 4 -585 5 -767 l1 -333
455 0 456 0 -3 123 -3 122 -303 3 -302 2 2 208 3 207 263 3 262 2 0 119 0 118
-157 6 c-87 4 -206 7 -265 7 l-108 0 0 195 0 195 303 2 302 3 0 125 0 125
-452 3 c-424 2 -452 1 -457 -15z"/><path d="M21552 6262 c-10 -7 -12 -171 -10 -788 l3 -779 155 0 155 0 3 308 2
308 77 -3 77 -3 171 -305 c197 -352 153 -316 373 -305 110 6 142 10 142 21 0
7 -72 140 -160 295 -149 261 -179 329 -147 329 29 0 121 53 168 97 95 89 139
197 139 341 0 48 -5 107 -11 131 -39 171 -174 296 -364 335 -78 16 -750 31
-773 18z m719 -290 c43 -22 59 -38 82 -82 26 -50 29 -62 25 -133 -4 -66 -9
-84 -34 -120 -17 -23 -50 -53 -74 -67 -43 -24 -55 -25 -227 -28 l-183 -4 0
231 0 231 179 0 c176 0 180 0 232 -28z"/><path d="M14012 5478 l3 -783 330 -3 c182 -1 373 2 425 7 165 16 284 74 358
173 54 72 72 133 72 239 0 158 -52 266 -159 336 -75 48 -77 66 -12 112 89 64
130 154 131 288 0 188 -85 315 -258 382 l-67 26 -413 3 -412 3 2 -783z m700
522 c48 -14 97 -55 114 -97 8 -18 14 -61 14 -96 0 -70 -20 -112 -71 -150 -34
-25 -157 -39 -315 -35 l-119 3 -3 199 -2 199 172 -6 c95 -3 190 -11 210 -17z
m29 -640 c97 -27 149 -100 149 -207 0 -71 -16 -117 -51 -150 -49 -45 -83 -51
-299 -54 l-205 -4 -3 213 -2 212 187 0 c104 0 204 -5 224 -10z"/><path d="M17252 5478 l3 -783 155 0 155 0 3 308 2 307 70 0 c43 0 73 -5 80
-12 6 -7 81 -137 166 -288 85 -151 162 -285 170 -297 14 -22 19 -23 189 -23
98 0 175 4 175 9 0 11 -23 52 -203 359 -76 129 -137 244 -137 255 0 17 10 25
42 35 92 29 191 119 242 219 23 46 46 149 46 208 0 28 -7 81 -15 118 -39 184
-157 299 -356 347 -76 18 -118 20 -437 20 l-352 0 2 -782z m733 492 c68 -35
105 -105 105 -196 0 -102 -34 -164 -115 -207 -36 -19 -60 -22 -222 -25 l-183
-4 0 232 0 232 183 -4 c173 -3 185 -4 232 -28z"/><path d="M18712 5478 l3 -783 240 -3 c327 -4 529 10 620 41 97 33 148 61 231
122 78 59 122 108 176 200 123 208 139 527 39 767 -88 211 -286 370 -522 418
-82 17 -137 20 -442 20 l-347 0 2 -782z m730 493 c169 -54 274 -174 313 -358
51 -240 -42 -493 -216 -587 -86 -47 -140 -58 -336 -63 l-183 -5 0 522 0 522
178 -5 c144 -4 189 -9 244 -26z"/><path d="M8325 10234 c-313 -32 -521 -86 -730 -192 -338 -170 -525 -338 -698
-627 -128 -214 -202 -492 -200 -755 1 -227 46 -438 129 -604 199 -397 555
-639 1244 -846 323 -97 603 -195 753 -264 216 -99 359 -251 412 -436 26 -91
31 -234 10 -326 -47 -213 -202 -389 -412 -468 -140 -52 -187 -60 -373 -60
-214 0 -299 18 -465 99 -165 82 -278 184 -383 345 -37 57 -59 79 -79 80 -7 0
-77 -42 -158 -92 -80 -51 -174 -111 -210 -133 -370 -229 -375 -232 -375 -267
0 -25 43 -96 112 -187 178 -232 351 -376 619 -515 439 -228 978 -283 1474
-151 299 79 551 216 747 404 238 228 342 400 418 688 46 177 63 323 57 503
-12 367 -121 660 -341 914 -56 64 -181 171 -236 202 -19 10 -41 25 -49 33 -8
7 -96 53 -195 101 -175 86 -320 140 -571 215 -787 235 -992 339 -1100 559 -84
171 -85 356 0 531 100 209 351 358 641 380 101 8 275 -13 366 -44 193 -67 348
-192 478 -389 67 -102 66 -102 219 0 60 40 138 91 173 112 35 22 109 69 165
105 56 36 142 92 192 123 65 41 91 63 91 77 0 67 -198 308 -380 462 -73 62
-208 159 -222 159 -5 0 -24 11 -41 24 -62 47 -278 135 -435 177 -179 48 -494
79 -647 63z"/><path d="M18705 8281 c-146 -24 -303 -103 -418 -210 -102 -96 -190 -251 -223
-396 -27 -118 -25 -305 4 -408 25 -88 79 -202 125 -262 156 -207 446 -340 704
-322 297 21 565 198 684 452 50 108 69 181 76 300 6 110 -12 240 -48 348 -70
210 -290 412 -521 477 -82 23 -296 35 -383 21z m250 -276 c42 -8 102 -27 132
-42 68 -34 153 -125 194 -208 139 -284 16 -669 -245 -761 -22 -8 -75 -19 -117
-25 -320 -40 -559 179 -559 512 0 104 27 216 71 300 64 119 198 210 336 228
99 12 104 12 188 -4z"/><path d="M14022 8255 c-10 -12 -12 -167 -11 -752 1 -406 5 -748 10 -760 5 -13
15 -23 24 -23 8 0 15 -4 15 -10 0 -15 752 -1 822 16 200 48 328 203 328 397 0
155 -74 282 -200 347 -53 27 -54 58 -4 85 52 28 110 98 135 164 31 81 31 225
1 302 -42 107 -178 208 -320 238 -34 7 -186 11 -420 11 -307 -1 -369 -3 -380
-15z m755 -267 c75 -49 102 -156 63 -244 -45 -101 -108 -124 -347 -124 l-162
0 -7 47 c-7 49 3 330 12 345 4 6 91 8 203 6 195 -3 198 -3 238 -30z m-20 -623
c152 -45 190 -281 61 -378 -39 -29 -95 -36 -294 -37 -152 0 -184 3 -194 15
-10 12 -12 59 -7 206 4 105 9 194 12 200 10 16 364 11 422 -6z"/><path d="M15481 8243 c-8 -20 -11 -235 -9 -773 3 -736 3 -745 23 -749 11 -2
23 -7 26 -12 3 -6 174 -7 428 -3 l421 7 6 23 c7 28 9 62 6 131 -3 86 6 83
-307 83 -208 0 -276 3 -282 13 -13 19 -3 401 11 409 6 4 117 8 246 8 129 0
240 4 246 8 6 4 14 48 18 99 11 133 24 127 -277 133 l-242 5 -7 160 c-3 88 -3
178 1 200 l7 40 274 2 c187 2 282 7 298 15 20 11 22 18 22 105 0 69 -4 98 -14
109 -12 12 -86 14 -449 14 l-435 0 -11 -27z"/><path d="M16587 8263 c-15 -14 -6 -53 24 -109 17 -33 56 -106 86 -164 30 -58
81 -154 113 -215 32 -60 88 -168 125 -240 37 -71 83 -159 103 -195 l37 -65 5
-273 c4 -228 7 -274 20 -282 23 -15 263 -13 278 2 9 9 12 82 12 268 l0 255 26
45 c31 53 78 140 161 300 34 63 84 160 113 215 148 282 220 424 220 438 0 22
-31 27 -172 27 -117 0 -130 -2 -149 -21 -12 -12 -57 -96 -101 -188 -97 -204
-207 -422 -220 -438 -6 -7 -20 -13 -33 -13 -18 0 -31 19 -73 104 -28 57 -69
144 -91 193 -47 107 -159 333 -173 351 -11 13 -298 18 -311 5z"/><path d="M19919 8253 c-12 -13 -14 -146 -14 -770 0 -659 2 -755 15 -763 8 -5
72 -10 142 -10 116 0 128 2 138 19 6 13 10 190 10 505 l0 486 23 0 c18 -1 80
-87 347 -491 179 -270 335 -498 346 -505 28 -19 287 -22 309 -4 13 11 15 117
15 769 0 575 -3 760 -12 769 -8 8 -55 12 -145 12 -121 0 -133 -2 -143 -19 -6
-13 -10 -183 -10 -485 0 -255 -3 -471 -6 -480 -3 -9 -17 -16 -30 -16 -19 0
-33 13 -60 58 -20 31 -57 87 -83 124 -25 38 -75 112 -111 167 -215 328 -424
633 -440 641 -10 6 -77 10 -148 10 -108 0 -132 -3 -143 -17z"/><path d="M21581 8251 c-8 -13 -11 -253 -11 -768 0 -710 1 -749 18 -764 16 -14
61 -15 383 -9 362 7 365 7 449 35 156 50 261 120 358 235 125 149 178 319 169
540 -7 154 -25 229 -82 346 -35 73 -60 107 -127 175 -72 73 -99 92 -188 137
-168 82 -181 85 -597 89 -354 4 -362 4 -372 -16z m672 -252 c235 -43 377 -235
377 -508 -1 -226 -87 -391 -244 -466 -94 -44 -159 -55 -343 -55 l-153 0 0 520
0 520 153 0 c84 0 179 -5 210 -11z"/></g>
<g fill="none" stroke="#000" stroke-width="250" stroke-linejoin="round" stroke-linecap="round"><path d="M8325 10234 c-313 -32 -521 -86 -730 -192 -338 -170 -525 -338 -698
-627 -128 -214 -202 -492 -200 -755 1 -227 46 -438 129 -604 199 -397 555
-639 1244 -846 323 -97 603 -195 753 -264 216 -99 359 -251 412 -436 26 -91
31 -234 10 -326 -47 -213 -202 -389 -412 -468 -140 -52 -187 -60 -373 -60
-214 0 -299 18 -465 99 -165 82 -278 184 -383 345 -37 57 -59 79 -79 80 -7 0
-77 -42 -158 -92 -80 -51 -174 -111 -210 -133 -370 -229 -375 -232 -375 -267
0 -25 43 -96 112 -187 178 -232 351 -376 619 -515 439 -228 978 -283 1474
-151 299 79 551 216 747 404 238 228 342 400 418 688 46 177 63 323 57 503
-12 367 -121 660 -341 914 -56 64 -181 171 -236 202 -19 10 -41 25 -49 33 -8
7 -96 53 -195 101 -175 86 -320 140 -571 215 -787 235 -992 339 -1100 559 -84
171 -85 356 0 531 100 209 351 358 641 380 101 8 275 -13 366 -44 193 -67 348
-192 478 -389 67 -102 66 -102 219 0 60 40 138 91 173 112 35 22 109 69 165
105 56 36 142 92 192 123 65 41 91 63 91 77 0 67 -198 308 -380 462 -73 62
-208 159 -222 159 -5 0 -24 11 -41 24 -62 47 -278 135 -435 177 -179 48 -494
79 -647 63z"/></g></g></mask></defs>
<rect x="369" y="441" width="2402" height="624" fill="#f2420b" mask="url(#ml)"/></svg>