<?xml version="1.0" encoding="UTF-8"?>
<svg xmlns="http://www.w3.org/2000/svg" viewBox="375 447 935 613" width="935" height="613">
<g transform="translate(0.000000,1504.000000) scale(0.100000,-0.100000)" stroke="none">
<g fill="#fefefe"><path d="M5590 10319 c-394 -50 -753 -212 -984 -444 -225 -224 -351 -464 -417
-791 -33 -167 -38 -412 -10 -573 37 -215 108 -395 219 -551 61 -85 185 -213
261 -270 88 -65 85 -79 -33 -157 -294 -195 -528 -537 -595 -869 -103 -504 -1
-991 285 -1360 261 -337 671 -563 1127 -619 166 -20 2267 -23 2267 -2 0 7 -30
23 -67 36 -106 38 -314 145 -416 212 -246 165 -446 374 -572 597 l-40 71 -475
3 c-457 4 -478 5 -555 27 -214 60 -376 195 -479 399 -94 185 -92 462 5 653
109 217 262 342 498 407 l96 27 998 0 c658 0 997 3 997 10 0 6 -46 27 -103 49
-307 116 -568 286 -739 482 -77 87 -164 220 -203 306 l-30 66 -430 5 c-483 5
-504 8 -653 77 -69 33 -99 55 -161 118 -130 133 -185 279 -184 492 0 113 3
134 31 218 63 187 175 312 355 398 135 64 164 67 648 71 l436 4 19 42 c28 63
137 222 214 312 189 223 468 414 753 516 37 13 67 29 67 36 0 10 -209 13
-1032 12 -568 -1 -1062 -5 -1098 -10z"/><path d="M9190 10318 c0 -7 54 -35 119 -61 274 -111 550 -312 722 -525 69 -85
194 -270 204 -302 6 -20 14 -20 401 -20 475 0 541 -7 679 -74 254 -124 385
-334 385 -618 0 -333 -183 -578 -493 -660 -81 -22 -91 -22 -1074 -25 -766 -3
-993 -7 -993 -16 0 -7 53 -32 118 -56 440 -164 780 -432 963 -761 l44 -78 475
-4 c450 -4 479 -5 555 -26 286 -78 480 -273 546 -549 30 -126 24 -323 -14
-438 -38 -115 -90 -199 -182 -290 -91 -91 -191 -148 -330 -187 -77 -21 -100
-22 -572 -26 l-492 -3 -36 -71 c-113 -222 -323 -455 -545 -601 -106 -70 -321
-180 -417 -214 -128 -44 -121 -44 1070 -41 1109 3 1123 4 1232 25 408 82 779
292 1006 570 124 151 228 348 269 506 51 201 54 730 6 972 -61 301 -283 617
-561 796 -106 69 -109 85 -30 148 189 151 348 379 425 609 97 291 91 680 -16
1001 -177 533 -566 859 -1189 998 l-120 27 -1077 3 c-873 3 -1078 1 -1078 -9z"/></g>
<g fill="#ff6824"><path d="M8325 10234 c-313 -32 -521 -86 -730 -192 -338 -170 -525 -338 -698
-627 -128 -214 -202 -492 -200 -755 1 -227 46 -438 129 -604 199 -397 555
-639 1244 -846 323 -97 603 -195 753 -264 216 -99 359 -251 412 -436 26 -91
31 -234 10 -326 -47 -213 -202 -389 -412 -468 -140 -52 -187 -60 -373 -60
-214 0 -299 18 -465 99 -165 82 -278 184 -383 345 -37 57 -59 79 -79 80 -7 0
-77 -42 -158 -92 -80 -51 -174 -111 -210 -133 -370 -229 -375 -232 -375 -267
0 -25 43 -96 112 -187 178 -232 351 -376 619 -515 439 -228 978 -283 1474
-151 299 79 551 216 747 404 238 228 342 400 418 688 46 177 63 323 57 503
-12 367 -121 660 -341 914 -56 64 -181 171 -236 202 -19 10 -41 25 -49 33 -8
7 -96 53 -195 101 -175 86 -320 140 -571 215 -787 235 -992 339 -1100 559 -84
171 -85 356 0 531 100 209 351 358 641 380 101 8 275 -13 366 -44 193 -67 348
-192 478 -389 67 -102 66 -102 219 0 60 40 138 91 173 112 35 22 109 69 165
105 56 36 142 92 192 123 65 41 91 63 91 77 0 67 -198 308 -380 462 -73 62
-208 159 -222 159 -5 0 -24 11 -41 24 -62 47 -278 135 -435 177 -179 48 -494
79 -647 63z"/></g>
</g></svg>